<svg width="66" height="62" viewBox="0 0 66 62" fill="none" xmlns="http://www.w3.org/2000/svg">
<rect width="65.3513" height="62.8378" transform="matrix(-1 0 0 1 65.973 0)" fill="#6C80EA"/>
<path d="M18.4202 43.9961L27.0931 35.6568C25.4131 33.6615 24.4016 31.126 24.4016 28.3646C24.4016 21.9644 29.8176 16.7568 36.4738 16.7568C43.13 16.7568 48.5459 21.9644 48.5459 28.3646C48.5459 34.7648 43.13 39.9724 36.4738 39.9724C33.6019 39.9724 30.965 38.9998 28.8899 37.3845L20.217 45.7238C19.9692 45.9621 19.6439 46.0818 19.3186 46.0818C18.9932 46.0818 18.6679 45.9621 18.4201 45.7238C17.9233 45.2461 17.9233 44.4738 18.4202 43.9961ZM36.4738 37.5287C41.7296 37.5287 46.0044 33.4183 46.0044 28.3646C46.0044 23.3109 41.7296 19.2005 36.4738 19.2005C31.2179 19.2005 26.9431 23.3109 26.9431 28.3646C26.9431 33.4183 31.218 37.5287 36.4738 37.5287Z" fill="black"/>
</svg>
