<svg width="65" height="62" viewBox="0 0 65 62" fill="none" xmlns="http://www.w3.org/2000/svg">
<rect width="65.3513" height="62.8378" rx="31.4189" transform="matrix(-1 0 0 1 65.3513 0)" fill="#6C80EA"/>
<path d="M17.7986 43.9961L26.4715 35.6568C24.7915 33.6615 23.78 31.126 23.78 28.3646C23.78 21.9644 29.196 16.7567 35.8522 16.7567C42.5084 16.7567 47.9243 21.9644 47.9243 28.3646C47.9243 34.7648 42.5083 39.9724 35.8521 39.9724C32.9802 39.9724 30.3434 38.9998 28.2683 37.3845L19.5954 45.7238C19.3476 45.9621 19.0223 46.0818 18.697 46.0818C18.3716 46.0818 18.0463 45.9621 17.7985 45.7238C17.3017 45.2461 17.3017 44.4738 17.7986 43.9961ZM35.8521 37.5286C41.108 37.5286 45.3828 33.4183 45.3828 28.3646C45.3828 23.3108 41.108 19.2005 35.8521 19.2005C30.5963 19.2005 26.3215 23.3108 26.3215 28.3646C26.3215 33.4183 30.5963 37.5286 35.8521 37.5286Z" fill="black"/>
</svg>
